<svg width="25" height="24" viewBox="0 0 25 24" fill="none" xmlns="http://www.w3.org/2000/svg">
<path fill-rule="evenodd" clip-rule="evenodd" d="M12.6665 1.25C12.0618 1.25 11.505 1.40029 10.8953 1.65242C10.3066 1.89588 9.62283 2.25471 8.7714 2.70153L6.70389 3.78651C5.65892 4.33487 4.82266 4.77371 4.17698 5.20491C3.50804 5.65164 2.99282 6.12201 2.61763 6.75918C2.24368 7.39421 2.07546 8.08184 1.99479 8.90072C1.91649 9.69558 1.9165 10.6731 1.9165 11.9026V12.0974C1.9165 13.3268 1.91649 14.3044 1.99479 15.0993C2.07546 15.9182 2.24368 16.6058 2.61763 17.2408C2.99282 17.878 3.50804 18.3484 4.17698 18.7951C4.82266 19.2263 5.65891 19.6651 6.70387 20.2135L8.77132 21.2984C9.62278 21.7453 10.3066 22.1041 10.8953 22.3476C11.505 22.5997 12.0618 22.75 12.6665 22.75C13.2712 22.75 13.8281 22.5997 14.4377 22.3476C15.0264 22.1041 15.7102 21.7453 16.5616 21.2985L18.6291 20.2135C19.6741 19.6651 20.5103 19.2263 21.156 18.7951C21.825 18.3484 22.3402 17.878 22.7154 17.2408C23.0893 16.6058 23.2575 15.9182 23.3382 15.0993C23.4165 14.3044 23.4165 13.3269 23.4165 12.0975V11.9025C23.4165 10.6731 23.4165 9.69557 23.3382 8.90072C23.2575 8.08184 23.0893 7.39421 22.7154 6.75918C22.3402 6.12201 21.825 5.65164 21.156 5.20491C20.5103 4.77371 19.6741 4.33487 18.6291 3.7865L16.5616 2.70154C15.7102 2.25472 15.0264 1.89589 14.4377 1.65242C13.8281 1.40029 13.2712 1.25 12.6665 1.25ZM9.43731 4.04608C10.327 3.57917 10.9505 3.2528 11.4685 3.03856C11.9727 2.83004 12.327 2.75 12.6665 2.75C13.006 2.75 13.3603 2.83004 13.8645 3.03856C14.3825 3.2528 15.006 3.57917 15.8957 4.04608L17.8957 5.09563C18.9854 5.66748 19.751 6.07032 20.323 6.45232C20.6052 6.64078 20.8269 6.81578 21.006 6.99174L17.6753 8.65708L9.17545 4.18349L9.43731 4.04608ZM7.61117 5.00439L7.43731 5.09563C6.34761 5.66747 5.58204 6.07032 5.01002 6.45232C4.72782 6.64078 4.50606 6.81578 4.32704 6.99174L12.6665 11.1615L16.0237 9.48289L7.81719 5.16369C7.73746 5.12173 7.66842 5.06743 7.61117 5.00439ZM3.60419 8.30737C3.55368 8.52125 3.51551 8.76413 3.48757 9.04778C3.41735 9.7606 3.4165 10.6644 3.4165 11.9415V12.0585C3.4165 13.3356 3.41735 14.2394 3.48757 14.9522C3.55625 15.6494 3.68672 16.1002 3.91018 16.4797C4.13238 16.857 4.45377 17.1762 5.01002 17.5477C5.58204 17.9297 6.34761 18.3325 7.43731 18.9044L9.4373 19.9539C10.327 20.4208 10.9505 20.7472 11.4685 20.9614C11.6321 21.0291 11.7799 21.0832 11.9165 21.1255V12.4635L3.60419 8.30737ZM13.4165 21.1255C13.5531 21.0832 13.7009 21.0291 13.8645 20.9614C14.3825 20.7472 15.006 20.4208 15.8957 19.9539L17.8957 18.9044C18.9854 18.3325 19.751 17.9297 20.323 17.5477C20.8792 17.1762 21.2006 16.857 21.4228 16.4797C21.6463 16.1002 21.7768 15.6494 21.8454 14.9522C21.9157 14.2394 21.9165 13.3356 21.9165 12.0585V11.9415C21.9165 10.6644 21.9157 9.7606 21.8454 9.04778C21.8175 8.76412 21.7793 8.52125 21.7288 8.30736L18.4165 9.96352V13C18.4165 13.4142 18.0807 13.75 17.6665 13.75C17.2523 13.75 16.9165 13.4142 16.9165 13V10.7135L13.4165 12.4635V21.1255Z" fill="black"/>
</svg>
